<svg xmlns="http://www.w3.org/2000/svg"  viewBox="0 0 100 100" width="50px" height="50px"><path fill="#f1bc19" d="M78 13A1 1 0 1 0 78 15A1 1 0 1 0 78 13Z"/><path fill="#f9dbd2" d="M50 12A38 38 0 1 0 50 88A38 38 0 1 0 50 12Z"/><path fill="#f1bc19" d="M84 12A4 4 0 1 0 84 20A4 4 0 1 0 84 12Z"/><path fill="#ee3e54" d="M14 24A2 2 0 1 0 14 28A2 2 0 1 0 14 24Z"/><path fill="#fbcd59" d="M78 75A2 2 0 1 0 78 79 2 2 0 1 0 78 75zM17 74A4 4 0 1 0 17 82 4 4 0 1 0 17 74z"/><path fill="#ee3e54" d="M24 81A2 2 0 1 0 24 85A2 2 0 1 0 24 81Z"/><path fill="#fff" d="M66.483 76.03399999999999A2.483 2.483 0 1 0 66.483 81 2.483 2.483 0 1 0 66.483 76.03399999999999zM16 47A1 1 0 1 0 16 49 1 1 0 1 0 16 47z"/><path fill="#f1bc19" d="M86 30A1 1 0 1 0 86 32A1 1 0 1 0 86 30Z"/><path fill="#fff" d="M80 64A2 2 0 1 0 80 68A2 2 0 1 0 80 64Z"/><path fill="#472b29" d="M41.838 39.5c-.087 0-.174-.022-.254-.069-2.331-1.372-3.519-4.032-2.761-6.188.408-1.164 2.01-3.78 8.042-2.903 1.305.188 2.483.166 3.503-.072.271-.062.538.105.601.374s-.105.538-.374.601c-1.141.266-2.443.296-3.872.088-3.733-.54-6.265.277-6.956 2.245-.603 1.713.397 3.86 2.325 4.995.237.14.317.446.177.685C42.176 39.412 42.009 39.5 41.838 39.5zM52.732 30.241c-.153 0-.304-.07-.402-.203-.164-.222-.117-.535.105-.699.794-.586 1.373-1.379 1.721-2.354.092-.259.378-.399.639-.303.26.093.396.378.303.639-.409 1.15-1.125 2.126-2.068 2.823C52.94 30.209 52.836 30.241 52.732 30.241zM54.982 24.966c-.26 0-.479-.202-.498-.466-.134-1.944-1.11-3.563-2.429-4.028-.261-.092-.397-.378-.306-.638.092-.261.382-.395.638-.306 1.716.605 2.931 2.53 3.095 4.903.019.275-.189.514-.465.533C55.006 24.966 54.994 24.966 54.982 24.966z"/><path fill="#ceccbe" d="M26.957,65.3c-2.348,0-4.257-1.909-4.257-4.257V41.957c0-2.348,1.909-4.257,4.257-4.257h45.086 c2.348,0,4.257,1.909,4.257,4.257v19.086c0,2.348-1.909,4.257-4.257,4.257H26.957z"/><path fill="#472b29" d="M72.042,38.4c1.962,0,3.557,1.596,3.557,3.558v19.085c0,1.961-1.596,3.558-3.557,3.558H26.958 c-1.962,0-3.558-1.596-3.558-3.558V41.958c0-1.961,1.596-3.558,3.558-3.558H72.042 M72.042,37H26.958C24.22,37,22,39.22,22,41.958 v19.085C22,63.78,24.22,66,26.958,66h45.085C74.78,66,77,63.78,77,61.042V41.958C77,39.22,74.78,37,72.042,37L72.042,37z"/><path fill="#e5e3d0" d="M55.454,61.296H39.4c-1.069,0-1.944-0.875-1.944-1.944V58.69c0-1.069,0.875-1.944,1.944-1.944 h20.324c1.069,0,1.944,0.875,1.944,1.944v0.663c0,1.069-0.875,1.944-1.944,1.944"/><path fill="#472b29" d="M59.723,61.622c-0.18,0-0.325-0.146-0.325-0.325s0.146-0.325,0.325-0.325 c0.893,0,1.619-0.727,1.619-1.619V58.69c0-0.893-0.726-1.619-1.619-1.619H39.399c-0.893,0-1.619,0.727-1.619,1.619v0.662 c0,0.893,0.726,1.619,1.619,1.619h16.055c0.18,0,0.325,0.146,0.325,0.325s-0.146,0.325-0.325,0.325H39.399 c-1.251,0-2.269-1.019-2.269-2.27V58.69c0-1.251,1.018-2.27,2.269-2.27h20.324c1.251,0,2.269,1.019,2.269,2.27v0.662 C61.992,60.603,60.974,61.622,59.723,61.622z"/><path fill="#472b29" d="M56.979,61.622h-0.18c-0.18,0-0.325-0.146-0.325-0.325s0.146-0.325,0.325-0.325h0.18 c0.18,0,0.325,0.146,0.325,0.325S57.159,61.622,56.979,61.622z"/><path fill="#e5e3d0" d="M29.019,46.652h-1.31c-0.89,0-1.619-0.728-1.619-1.619v-1.31c0-0.89,0.728-1.619,1.619-1.619h1.31 c0.89,0,1.619,0.728,1.619,1.619v1.31C30.638,45.924,29.91,46.652,29.019,46.652z"/><path fill="#472b29" d="M29.02,46.978h-1.31c-1.072,0-1.944-0.872-1.944-1.944v-1.31c0-1.072,0.872-1.944,1.944-1.944h1.31 c1.072,0,1.944,0.872,1.944,1.944v1.31C30.963,46.106,30.091,46.978,29.02,46.978z M27.709,42.43c-0.713,0-1.293,0.58-1.293,1.294 v1.31c0,0.714,0.58,1.294,1.293,1.294h1.31c0.713,0,1.293-0.58,1.293-1.294v-1.31c0-0.714-0.58-1.294-1.293-1.294H27.709z"/><g><path fill="#e5e3d0" d="M36.123,46.652h-1.31c-0.89,0-1.619-0.728-1.619-1.619v-1.31c0-0.89,0.728-1.619,1.619-1.619h1.31 c0.89,0,1.619,0.728,1.619,1.619v1.31C37.742,45.924,37.013,46.652,36.123,46.652z"/><path fill="#472b29" d="M36.123,46.978h-1.31c-1.072,0-1.944-0.872-1.944-1.944v-1.31c0-1.072,0.872-1.944,1.944-1.944 h1.31c1.072,0,1.944,0.872,1.944,1.944v1.31C38.067,46.106,37.195,46.978,36.123,46.978z M34.813,42.43 c-0.713,0-1.293,0.58-1.293,1.294v1.31c0,0.714,0.58,1.294,1.293,1.294h1.31c0.713,0,1.293-0.58,1.293-1.294v-1.31 c0-0.714-0.58-1.294-1.293-1.294H34.813z"/></g><g><path fill="#e5e3d0" d="M43.227,46.652h-1.31c-0.89,0-1.619-0.728-1.619-1.619v-1.31c0-0.89,0.728-1.619,1.619-1.619h1.31 c0.89,0,1.619,0.728,1.619,1.619v1.31C44.846,45.924,44.117,46.652,43.227,46.652z"/><path fill="#472b29" d="M43.227,46.978h-1.31c-1.072,0-1.944-0.872-1.944-1.944v-1.31c0-1.072,0.872-1.944,1.944-1.944 h1.31c1.072,0,1.944,0.872,1.944,1.944v1.31C45.171,46.106,44.299,46.978,43.227,46.978z M41.917,42.43 c-0.713,0-1.293,0.58-1.293,1.294v1.31c0,0.714,0.58,1.294,1.293,1.294h1.31c0.713,0,1.293-0.58,1.293-1.294v-1.31 c0-0.714-0.58-1.294-1.293-1.294H41.917z"/></g><g><path fill="#e5e3d0" d="M50.331,46.652h-1.31c-0.89,0-1.619-0.728-1.619-1.619v-1.31c0-0.89,0.728-1.619,1.619-1.619h1.31 c0.89,0,1.619,0.728,1.619,1.619v1.31C51.949,45.924,51.221,46.652,50.331,46.652z"/><path fill="#472b29" d="M50.331,46.978h-1.31c-1.072,0-1.944-0.872-1.944-1.944v-1.31c0-1.072,0.872-1.944,1.944-1.944 h1.31c1.072,0,1.944,0.872,1.944,1.944v1.31C52.274,46.106,51.402,46.978,50.331,46.978z M49.021,42.43 c-0.713,0-1.293,0.58-1.293,1.294v1.31c0,0.714,0.58,1.294,1.293,1.294h1.31c0.713,0,1.293-0.58,1.293-1.294v-1.31 c0-0.714-0.58-1.294-1.293-1.294H49.021z"/></g><g><path fill="#e5e3d0" d="M57.434,46.652h-1.31c-0.89,0-1.619-0.728-1.619-1.619v-1.31c0-0.89,0.728-1.619,1.619-1.619h1.31 c0.89,0,1.619,0.728,1.619,1.619v1.31C59.053,45.924,58.325,46.652,57.434,46.652z"/><path fill="#472b29" d="M57.435,46.978h-1.31c-1.072,0-1.944-0.872-1.944-1.944v-1.31c0-1.072,0.872-1.944,1.944-1.944 h1.31c1.072,0,1.944,0.872,1.944,1.944v1.31C59.378,46.106,58.506,46.978,57.435,46.978z M56.125,42.43 c-0.713,0-1.293,0.58-1.293,1.294v1.31c0,0.714,0.58,1.294,1.293,1.294h1.31c0.713,0,1.293-0.58,1.293-1.294v-1.31 c0-0.714-0.58-1.294-1.293-1.294H56.125z"/></g><g><path fill="#e5e3d0" d="M64.538,46.652h-1.31c-0.89,0-1.619-0.728-1.619-1.619v-1.31c0-0.89,0.728-1.619,1.619-1.619h1.31 c0.89,0,1.619,0.728,1.619,1.619v1.31C66.157,45.924,65.428,46.652,64.538,46.652z"/><path fill="#472b29" d="M64.538,46.978h-1.31c-1.072,0-1.944-0.872-1.944-1.944v-1.31c0-1.072,0.872-1.944,1.944-1.944 h1.31c1.072,0,1.944,0.872,1.944,1.944v1.31C66.482,46.106,65.61,46.978,64.538,46.978z M63.228,42.43 c-0.713,0-1.293,0.58-1.293,1.294v1.31c0,0.714,0.58,1.294,1.293,1.294h1.31c0.713,0,1.293-0.58,1.293-1.294v-1.31 c0-0.714-0.58-1.294-1.293-1.294H63.228z"/></g><g><path fill="#e5e3d0" d="M29.019,53.279h-1.31c-0.89,0-1.619-0.728-1.619-1.619v-1.31c0-0.89,0.728-1.619,1.619-1.619h1.31 c0.89,0,1.619,0.728,1.619,1.619v1.31C30.638,52.551,29.91,53.279,29.019,53.279z"/><path fill="#472b29" d="M29.02,53.605h-1.31c-1.072,0-1.944-0.872-1.944-1.944v-1.31c0-1.072,0.872-1.944,1.944-1.944h1.31 c1.072,0,1.944,0.872,1.944,1.944v1.31C30.963,52.733,30.091,53.605,29.02,53.605z M27.709,49.057 c-0.713,0-1.293,0.58-1.293,1.294v1.31c0,0.714,0.58,1.294,1.293,1.294h1.31c0.713,0,1.293-0.58,1.293-1.294v-1.31 c0-0.714-0.58-1.294-1.293-1.294H27.709z"/></g><g><path fill="#e5e3d0" d="M36.123,53.279h-1.31c-0.89,0-1.619-0.728-1.619-1.619v-1.31c0-0.89,0.728-1.619,1.619-1.619h1.31 c0.89,0,1.619,0.728,1.619,1.619v1.31C37.742,52.551,37.013,53.279,36.123,53.279z"/><path fill="#472b29" d="M36.123,53.605h-1.31c-1.072,0-1.944-0.872-1.944-1.944v-1.31c0-1.072,0.872-1.944,1.944-1.944 h1.31c1.072,0,1.944,0.872,1.944,1.944v1.31C38.067,52.733,37.195,53.605,36.123,53.605z M34.813,49.057 c-0.713,0-1.293,0.58-1.293,1.294v1.31c0,0.714,0.58,1.294,1.293,1.294h1.31c0.713,0,1.293-0.58,1.293-1.294v-1.31 c0-0.714-0.58-1.294-1.293-1.294H34.813z"/></g><g><path fill="#e5e3d0" d="M43.227,53.279h-1.31c-0.89,0-1.619-0.728-1.619-1.619v-1.31c0-0.89,0.728-1.619,1.619-1.619h1.31 c0.89,0,1.619,0.728,1.619,1.619v1.31C44.846,52.551,44.117,53.279,43.227,53.279z"/><path fill="#472b29" d="M43.227,53.605h-1.31c-1.072,0-1.944-0.872-1.944-1.944v-1.31c0-1.072,0.872-1.944,1.944-1.944 h1.31c1.072,0,1.944,0.872,1.944,1.944v1.31C45.171,52.733,44.299,53.605,43.227,53.605z M41.917,49.057 c-0.713,0-1.293,0.58-1.293,1.294v1.31c0,0.714,0.58,1.294,1.293,1.294h1.31c0.713,0,1.293-0.58,1.293-1.294v-1.31 c0-0.714-0.58-1.294-1.293-1.294H41.917z"/></g><g><path fill="#e5e3d0" d="M50.331,53.279h-1.31c-0.89,0-1.619-0.728-1.619-1.619v-1.31c0-0.89,0.728-1.619,1.619-1.619h1.31 c0.89,0,1.619,0.728,1.619,1.619v1.31C51.949,52.551,51.221,53.279,50.331,53.279z"/><path fill="#472b29" d="M50.331,53.605h-1.31c-1.072,0-1.944-0.872-1.944-1.944v-1.31c0-1.072,0.872-1.944,1.944-1.944 h1.31c1.072,0,1.944,0.872,1.944,1.944v1.31C52.274,52.733,51.402,53.605,50.331,53.605z M49.021,49.057 c-0.713,0-1.293,0.58-1.293,1.294v1.31c0,0.714,0.58,1.294,1.293,1.294h1.31c0.713,0,1.293-0.58,1.293-1.294v-1.31 c0-0.714-0.58-1.294-1.293-1.294H49.021z"/></g><g><path fill="#e5e3d0" d="M57.434,53.279h-1.31c-0.89,0-1.619-0.728-1.619-1.619v-1.31c0-0.89,0.728-1.619,1.619-1.619h1.31 c0.89,0,1.619,0.728,1.619,1.619v1.31C59.053,52.551,58.325,53.279,57.434,53.279z"/><path fill="#472b29" d="M57.435,53.605h-1.31c-1.072,0-1.944-0.872-1.944-1.944v-1.31c0-1.072,0.872-1.944,1.944-1.944 h1.31c1.072,0,1.944,0.872,1.944,1.944v1.31C59.378,52.733,58.506,53.605,57.435,53.605z M56.125,49.057 c-0.713,0-1.293,0.58-1.293,1.294v1.31c0,0.714,0.58,1.294,1.293,1.294h1.31c0.713,0,1.293-0.58,1.293-1.294v-1.31 c0-0.714-0.58-1.294-1.293-1.294H56.125z"/></g><g><path fill="#e5e3d0" d="M64.538,53.279h-1.31c-0.89,0-1.619-0.728-1.619-1.619v-1.31c0-0.89,0.728-1.619,1.619-1.619h1.31 c0.89,0,1.619,0.728,1.619,1.619v1.31C66.157,52.551,65.428,53.279,64.538,53.279z"/><path fill="#472b29" d="M64.538,53.605h-1.31c-1.072,0-1.944-0.872-1.944-1.944v-1.31c0-1.072,0.872-1.944,1.944-1.944 h1.31c1.072,0,1.944,0.872,1.944,1.944v1.31C66.482,52.733,65.61,53.605,64.538,53.605z M63.228,49.057 c-0.713,0-1.293,0.58-1.293,1.294v1.31c0,0.714,0.58,1.294,1.293,1.294h1.31c0.713,0,1.293-0.58,1.293-1.294v-1.31 c0-0.714-0.58-1.294-1.293-1.294H63.228z"/></g><g><path fill="#e5e3d0" d="M71.538,46.652h-1.31c-0.89,0-1.619-0.728-1.619-1.619v-1.31c0-0.89,0.728-1.619,1.619-1.619h1.31 c0.89,0,1.619,0.728,1.619,1.619v1.31C73.157,45.924,72.428,46.652,71.538,46.652z"/><path fill="#472b29" d="M71.538,46.978h-1.31c-1.072,0-1.944-0.872-1.944-1.944v-1.31c0-1.072,0.872-1.944,1.944-1.944 h1.31c1.072,0,1.944,0.872,1.944,1.944v1.31C73.482,46.106,72.61,46.978,71.538,46.978z M70.228,42.43 c-0.713,0-1.293,0.58-1.293,1.294v1.31c0,0.714,0.58,1.294,1.293,1.294h1.31c0.713,0,1.293-0.58,1.293-1.294v-1.31 c0-0.714-0.58-1.294-1.293-1.294H70.228z"/></g><g><path fill="#e5e3d0" d="M71.538,53.279h-1.31c-0.89,0-1.619-0.728-1.619-1.619v-1.31c0-0.89,0.728-1.619,1.619-1.619h1.31 c0.89,0,1.619,0.728,1.619,1.619v1.31C73.157,52.551,72.428,53.279,71.538,53.279z"/><path fill="#472b29" d="M71.538,53.605h-1.31c-1.072,0-1.944-0.872-1.944-1.944v-1.31c0-1.072,0.872-1.944,1.944-1.944 h1.31c1.072,0,1.944,0.872,1.944,1.944v1.31C73.482,52.733,72.61,53.605,71.538,53.605z M70.228,49.057 c-0.713,0-1.293,0.58-1.293,1.294v1.31c0,0.714,0.58,1.294,1.293,1.294h1.31c0.713,0,1.293-0.58,1.293-1.294v-1.31 c0-0.714-0.58-1.294-1.293-1.294H70.228z"/></g></svg>